<svg width="16" height="16" viewBox="0 0 16 16" fill="none" xmlns="http://www.w3.org/2000/svg">
<path d="M4.51928 2.44444L7.6832 5.35953V5.35886V2.45117H8.29908V5.37257L11.4772 2.44444V5.76807H12.782V10.5621H11.4812V13.5216L8.29908 10.7259V13.5537H7.6832V10.772L4.52287 13.5556V10.5621H3.21802V5.76807H4.51928V2.44444ZM7.21892 6.37644H3.83391V9.95372H4.5221V8.82533L7.21892 6.37644ZM5.13873 9.09528V12.1981L7.6832 9.95694V6.78414L5.13873 9.09528ZM8.31681 9.92728L10.8653 12.1663V10.5621H10.862V9.09239L8.31681 6.78115V9.92728ZM11.4812 9.95372H12.1661V6.37644H8.80636L11.4812 8.79994V9.95372ZM10.8613 5.76807V3.84382L8.77275 5.76807H10.8613ZM7.2237 5.76807L5.13517 3.84382V5.76807H7.2237Z" fill="#32B9C5"/>
</svg>
